<svg xmlns="http://www.w3.org/2000/svg" viewBox="0 0 800 600" font-family="Inter, Arial, sans-serif">
  <defs>
    <radialGradient id="zone1" cx="50%" cy="50%" r="50%"><stop offset="0%" stop-color="#ff4400" stop-opacity="0.9"/><stop offset="100%" stop-color="#ff4400" stop-opacity="0.2"/></radialGradient>
    <radialGradient id="zone2" cx="50%" cy="50%" r="50%"><stop offset="0%" stop-color="#ff8800" stop-opacity="0.7"/><stop offset="100%" stop-color="#ff8800" stop-opacity="0.1"/></radialGradient>
    <radialGradient id="zone3" cx="50%" cy="50%" r="50%"><stop offset="0%" stop-color="#ffcc00" stop-opacity="0.5"/><stop offset="100%" stop-color="#ffcc00" stop-opacity="0.05"/></radialGradient>
    <radialGradient id="zone4" cx="50%" cy="50%" r="50%"><stop offset="0%" stop-color="#00ccff" stop-opacity="0.3"/><stop offset="100%" stop-color="#00ccff" stop-opacity="0.02"/></radialGradient>
  </defs>
  <rect width="800" height="600" fill="#0a0a0f"/>
  <text x="400" y="40" text-anchor="middle" fill="#e0e0e0" font-size="20" font-weight="700">Zones d'effets concentriques — Arme de 1 Mt (altitude optimale)</text>
  <circle cx="400" cy="320" r="240" fill="url(#zone4)" stroke="#00ccff" stroke-width="1" stroke-opacity="0.3"/>
  <circle cx="400" cy="320" r="180" fill="url(#zone3)" stroke="#ffcc00" stroke-width="1" stroke-opacity="0.4"/>
  <circle cx="400" cy="320" r="120" fill="url(#zone2)" stroke="#ff8800" stroke-width="1" stroke-opacity="0.5"/>
  <circle cx="400" cy="320" r="60" fill="url(#zone1)" stroke="#ff4400" stroke-width="1.5" stroke-opacity="0.7"/>
  <circle cx="400" cy="320" r="8" fill="#fff" opacity="0.9"/>
  <circle cx="400" cy="320" r="3" fill="#ff4400"/>
  <line x1="400" y1="320" x2="400" y2="80" stroke="#555" stroke-width="0.5" stroke-dasharray="4,4"/>
  <text x="400" y="310" text-anchor="middle" fill="#fff" font-size="11" font-weight="600">Boule de feu</text>
  <text x="400" y="325" text-anchor="middle" fill="#ccc" font-size="9">~1.4 km</text>
  <text x="530" y="260" fill="#ff8800" font-size="11" font-weight="500">Destruction totale</text>
  <text x="530" y="275" fill="#cc7700" font-size="9">~3.2 km — 20 psi</text>
  <text x="590" y="200" fill="#ffcc00" font-size="11" font-weight="500">Dommages graves</text>
  <text x="590" y="215" fill="#cc9900" font-size="9">~5.6 km — 5 psi</text>
  <text x="645" y="140" fill="#00ccff" font-size="11" font-weight="500">Brûlures 3e degré</text>
  <text x="645" y="155" fill="#0099cc" font-size="9">~9.5 km — rayonnement thermique</text>
  <rect x="30" y="510" width="16" height="16" rx="3" fill="#ff4400" opacity="0.8"/>
  <text x="52" y="523" fill="#ccc" font-size="11">Boule de feu / vaporisation</text>
  <rect x="230" y="510" width="16" height="16" rx="3" fill="#ff8800" opacity="0.7"/>
  <text x="252" y="523" fill="#ccc" font-size="11">Destruction complète (20 psi)</text>
  <rect x="470" y="510" width="16" height="16" rx="3" fill="#ffcc00" opacity="0.5"/>
  <text x="492" y="523" fill="#ccc" font-size="11">Dommages graves (5 psi)</text>
  <rect x="30" y="540" width="16" height="16" rx="3" fill="#00ccff" opacity="0.4"/>
  <text x="52" y="553" fill="#ccc" font-size="11">Brûlures thermiques sévères</text>
  <line x1="50" y1="580" x2="170" y2="580" stroke="#888" stroke-width="2"/>
  <line x1="50" y1="575" x2="50" y2="585" stroke="#888" stroke-width="2"/>
  <line x1="170" y1="575" x2="170" y2="585" stroke="#888" stroke-width="2"/>
  <text x="110" y="595" text-anchor="middle" fill="#888" font-size="10">~5 km</text>
</svg>